<?xml version="1.0" encoding="UTF-8"?>
<svg id="Layer_2" data-name="Layer 2" xmlns="http://www.w3.org/2000/svg" viewBox="0 0 289.73 51.99">
  <defs>
    <style>
      .cls-1 {
        fill: #f47c67;
      }
    </style>
  </defs>
  <g id="Layer_1-2" data-name="Layer 1">
    <g>
      <path class="cls-1" d="M0,46.88V5.11C0,2.3,1.51,.79,4.32,.79h4.18c2.3,0,3.96,.86,5.26,2.74l14.83,20.88V5.11c0-2.81,1.51-4.32,4.32-4.32h6.48c2.81,0,4.32,1.51,4.32,4.32V46.88c0,2.81-1.51,4.32-4.32,4.32h-4.1c-2.3,0-3.89-.86-5.18-2.74L15.12,27.15v19.73c0,2.81-1.51,4.32-4.32,4.32H4.32c-2.81,0-4.32-1.51-4.32-4.32Z"/>
      <path class="cls-1" d="M191.36,2.84C192.67,.91,195.2,0,198.94,0h9.35c3.74,0,6.15,.91,7.58,2.84l3.1,4.32V3.18c.04-1.32,.8-2.03,2.16-2.03h3.24c1.4,0,2.16,.76,2.16,2.16v14.61l6.16,11.14c1.36,2.48-.17,4.18-3.98,4.18h-2.62v7.52h.04v8.18h-.04c.28,1.85-.92,3.05-3.36,3.05h-15.05v-6.86c0-1.4-.76-2.16-2.16-2.16h-3.24c-1.36,0-2.12,.71-2.16,2.03v6.99h-15.25c-2.34-.03-3.56-1.22-3.29-3.05v-8.18h-.04v-7.52h-2.46c-3.73,0-5.34-1.7-3.99-4.18"/>
      <path class="cls-1" d="M50.99,25.99C50.99,11.95,61.22,0,78.21,0s27.22,11.95,27.22,25.99-10.22,25.99-27.22,25.99-27.22-11.95-27.22-25.99Zm39.32,0c0-7.06-4.39-13.03-12.1-13.03s-12.1,5.98-12.1,13.03,4.39,13.03,12.1,13.03,12.1-5.98,12.1-13.03Z"/>
      <path class="cls-1" d="M110.13,46.66l3.82-41.76c.22-2.66,1.8-4.1,4.46-4.1h6.7c2.45,0,4.03,1.08,4.97,3.38l10.08,25.27,10.08-25.27c.94-2.3,2.52-3.38,4.97-3.38h6.7c2.66,0,4.25,1.44,4.46,4.1l3.82,41.76c.29,2.95-1.22,4.54-4.1,4.54h-6.34c-2.74,0-4.32-1.44-4.54-4.1l-1.51-18.87-7.27,19.08c-.86,2.38-2.52,3.38-4.97,3.38h-2.59c-2.45,0-4.1-1.01-4.97-3.38l-7.27-19.08-1.51,18.87c-.22,2.66-1.8,4.1-4.54,4.1h-6.34c-2.88,0-4.39-1.58-4.1-4.54Z"/>
      <path class="cls-1" d="M240.41,46.88V5.11c0-2.81,1.51-4.32,4.32-4.32h19.37c14.69,0,25.63,11.3,25.63,25.2s-10.95,25.2-25.63,25.2h-19.37c-2.81,0-4.32-1.51-4.32-4.32Zm21.6-8.64c7.78,0,12.6-4.82,12.6-12.24s-4.83-12.31-12.6-12.24h-6.48v24.48h6.48Z"/>
    </g>
  </g>
</svg>